<svg width="324" height="324" viewBox="0 0 324 324" fill="none" xmlns="http://www.w3.org/2000/svg">
<rect width="324" height="324" fill="#F5F5F5"/>
<circle cx="162" cy="162" r="162" fill="url(#paint0_linear_0_1)"/>
<path d="M95.5 247.5L84 234V65H112.5L134.5 72.5L166 120.5L203 65H230.5L245.5 77V247.5H212.5L201.5 234V148L170.5 194L155.5 186L127.5 143.5V247.5H95.5Z" fill="white" stroke="white"/>
<g filter="url(#filter0_i_0_1)">
<path d="M111.5 231.5H88V69H113L158.5 138.5L205 69H229.5V231.5H206.5L205 112.5L158.5 180.5L111.5 112.5V231.5Z" fill="url(#paint1_linear_0_1)"/>
</g>
<defs>
<filter id="filter0_i_0_1" x="88" y="69" width="141.5" height="164.5" filterUnits="userSpaceOnUse" color-interpolation-filters="sRGB">
<feFlood flood-opacity="0" result="BackgroundImageFix"/>
<feBlend mode="normal" in="SourceGraphic" in2="BackgroundImageFix" result="shape"/>
<feColorMatrix in="SourceAlpha" type="matrix" values="0 0 0 0 0 0 0 0 0 0 0 0 0 0 0 0 0 0 127 0" result="hardAlpha"/>
<feOffset dy="2"/>
<feGaussianBlur stdDeviation="2"/>
<feComposite in2="hardAlpha" operator="arithmetic" k2="-1" k3="1"/>
<feColorMatrix type="matrix" values="0 0 0 0 0 0 0 0 0 0 0 0 0 0 0 0 0 0 0.25 0"/>
<feBlend mode="normal" in2="shape" result="effect1_innerShadow_0_1"/>
</filter>
<linearGradient id="paint0_linear_0_1" x1="162" y1="0" x2="162" y2="324" gradientUnits="userSpaceOnUse">
<stop stop-color="#7D81F5"/>
<stop offset="0.665104" stop-color="#201569"/>
</linearGradient>
<linearGradient id="paint1_linear_0_1" x1="158.75" y1="69" x2="158.75" y2="231.5" gradientUnits="userSpaceOnUse">
<stop stop-color="#5B5FE4"/>
<stop offset="1" stop-color="#2C167A"/>
</linearGradient>
</defs>
</svg>
