<svg width="324" height="324" viewBox="0 0 324 324" fill="none" xmlns="http://www.w3.org/2000/svg">
<circle cx="162" cy="162" r="162" fill="url(#paint0_linear_0_1)"/>
<path d="M92.5 247.5L81 234V65H109.5L131.5 72.5L163 120.5L200 65H227.5L242.5 77V247.5H209.5L198.5 234V148L167.5 194L152.5 186L124.5 143.5V247.5H92.5Z" fill="white" stroke="white"/>
<g filter="url(#filter0_i_0_1)">
<path d="M108.5 231.5H85V69H110L155.5 138.5L202 69H226.5V231.5H203.5L202 112.5L155.5 180.5L108.5 112.5V231.5Z" fill="url(#paint1_linear_0_1)"/>
</g>
<defs>
<filter id="filter0_i_0_1" x="85" y="69" width="141.5" height="164.5" filterUnits="userSpaceOnUse" color-interpolation-filters="sRGB">
<feFlood flood-opacity="0" result="BackgroundImageFix"/>
<feBlend mode="normal" in="SourceGraphic" in2="BackgroundImageFix" result="shape"/>
<feColorMatrix in="SourceAlpha" type="matrix" values="0 0 0 0 0 0 0 0 0 0 0 0 0 0 0 0 0 0 127 0" result="hardAlpha"/>
<feOffset dy="2"/>
<feGaussianBlur stdDeviation="2"/>
<feComposite in2="hardAlpha" operator="arithmetic" k2="-1" k3="1"/>
<feColorMatrix type="matrix" values="0 0 0 0 0 0 0 0 0 0 0 0 0 0 0 0 0 0 0.25 0"/>
<feBlend mode="normal" in2="shape" result="effect1_innerShadow_0_1"/>
</filter>
<linearGradient id="paint0_linear_0_1" x1="162" y1="0" x2="162" y2="324" gradientUnits="userSpaceOnUse">
<stop stop-color="#7D81F5"/>
<stop offset="0.665104" stop-color="#201569"/>
</linearGradient>
<linearGradient id="paint1_linear_0_1" x1="155.75" y1="69" x2="155.75" y2="231.5" gradientUnits="userSpaceOnUse">
<stop stop-color="#5B5FE4"/>
<stop offset="1" stop-color="#2C167A"/>
</linearGradient>
</defs>
</svg>
